<svg width="32" height="32" viewBox="0 0 32 32" fill="none" xmlns="http://www.w3.org/2000/svg">
<path d="M0 19C0 19.5523 0.447715 20 1 20C1.55228 20 2 19.5523 2 19H0ZM2.758 8.758L3.46481 9.46541L3.46541 9.4648L2.758 8.758ZM29.242 8.758L28.5346 9.46481L28.5354 9.46565L29.242 8.758ZM29.8517 13.0972C29.9054 13.6469 30.3946 14.049 30.9442 13.9953C31.4939 13.9416 31.896 13.4524 31.8423 12.9028L29.8517 13.0972ZM32 19C32 18.4477 31.5523 18 31 18C30.4477 18 30 18.4477 30 19H32ZM29.242 29.242L28.5352 28.5346L28.5346 28.5352L29.242 29.242ZM2.758 29.242L3.46541 28.5352L3.46457 28.5344L2.758 29.242ZM2.14826 24.9028C2.09456 24.3531 1.60544 23.951 1.05577 24.0047C0.506103 24.0584 0.10404 24.5476 0.157738 25.0972L2.14826 24.9028ZM18.25 20C18.8023 20 19.25 19.5523 19.25 19C19.25 18.4477 18.8023 18 18.25 18V20ZM13.75 18C13.1977 18 12.75 18.4477 12.75 19C12.75 19.5523 13.1977 20 13.75 20V18ZM17 16.75C17 16.1977 16.5523 15.75 16 15.75C15.4477 15.75 15 16.1977 15 16.75H17ZM15 21.25C15 21.8023 15.4477 22.25 16 22.25C16.5523 22.25 17 21.8023 17 21.25H15ZM2 19C2 16.1435 2.00213 14.1015 2.21083 12.5498C2.41566 11.0268 2.80282 10.1268 3.4648 9.46541L2.0512 8.05059C0.955181 9.14567 0.46334 10.5384 0.228674 12.2832C-0.00212526 13.9992 0 16.2 0 19H2ZM3.46541 9.4648C4.12683 8.80282 5.02682 8.41566 6.5498 8.21083C8.10152 8.00213 10.1435 8 13 8V6C10.2 6 7.99923 5.99787 6.2832 6.22867C4.53843 6.46334 3.14567 6.95518 2.05059 8.0512L3.46541 9.4648ZM13 8H19V6H13V8ZM19 8C21.8565 8 23.8985 8.00213 25.4502 8.21083C26.9732 8.41566 27.8732 8.80282 28.5346 9.4648L29.9494 8.0512C28.8543 6.95518 27.4616 6.46334 25.7168 6.22867C24.0008 5.99787 21.8 6 19 6V8ZM28.5354 9.46565C29.2735 10.2026 29.6698 11.2353 29.8517 13.0972L31.8423 12.9028C31.6432 10.8647 31.1725 9.27239 29.9486 8.05035L28.5354 9.46565ZM30 19C30 21.8565 29.9979 23.8985 29.7892 25.4502C29.5843 26.9732 29.1972 27.8732 28.5352 28.5346L29.9488 29.9494C31.0448 28.8543 31.5367 27.4616 31.7713 25.7168C32.0021 24.0008 32 21.8 32 19H30ZM28.5346 28.5352C27.8732 29.1972 26.9732 29.5843 25.4502 29.7892C23.8985 29.9979 21.8565 30 19 30V32C21.8 32 24.0008 32.0021 25.7168 31.7713C27.4616 31.5367 28.8543 31.0448 29.9494 29.9488L28.5346 28.5352ZM19 30H13V32H19V30ZM13 30C10.1435 30 8.10152 29.9979 6.5498 29.7892C5.02682 29.5843 4.12683 29.1972 3.46541 28.5352L2.05059 29.9488C3.14567 31.0448 4.53843 31.5367 6.2832 31.7713C7.99923 32.0021 10.2 32 13 32V30ZM3.46457 28.5344C2.72647 27.7974 2.33015 26.7647 2.14826 24.9028L0.157738 25.0972C0.356846 27.1353 0.827529 28.7276 2.05143 29.9496L3.46457 28.5344ZM23 7C23 5.6138 23.0021 4.47385 22.8812 3.57492C22.7564 2.64705 22.4842 1.82802 21.8281 1.17189L20.4139 2.58611C20.6368 2.80898 20.8041 3.13595 20.8991 3.84158C20.9979 4.57615 21 5.5572 21 7H23ZM21.8281 1.17189C21.172 0.51577 20.353 0.243627 19.4251 0.118803C18.5262 -0.00212657 17.3862 0 16 0V2C17.4428 2 18.4238 2.00213 19.1584 2.10095C19.864 2.19587 20.191 2.36323 20.4139 2.58611L21.8281 1.17189ZM16 0C14.6138 0 13.4738 -0.00212657 12.5749 0.118803C11.647 0.243627 10.828 0.51577 10.1719 1.17189L11.5861 2.58611C11.809 2.36323 12.136 2.19587 12.8416 2.10095C13.5762 2.00213 14.5572 2 16 2V0ZM10.1719 1.17189C9.51577 1.82802 9.24363 2.64705 9.1188 3.57492C8.99787 4.47385 9 5.6138 9 7H11C11 5.5572 11.0021 4.57615 11.1009 3.84158C11.1959 3.13595 11.3632 2.80898 11.5861 2.58611L10.1719 1.17189ZM18.25 18H13.75V20H18.25V18ZM15 16.75V21.25H17V16.75H15ZM21 19C21 21.7614 18.7614 24 16 24V26C19.866 26 23 22.866 23 19H21ZM16 24C13.2386 24 11 21.7614 11 19H9C9 22.866 12.134 26 16 26V24ZM11 19C11 16.2386 13.2386 14 16 14V12C12.134 12 9 15.134 9 19H11ZM16 14C18.7614 14 21 16.2386 21 19H23C23 15.134 19.866 12 16 12V14Z" fill="white"/>
</svg>
