<svg width="30" height="32" viewBox="0 0 30 32" fill="none" xmlns="http://www.w3.org/2000/svg">
<path d="M28.8345 9.61484L27.5245 7.38125C27.3615 7.1031 27.0927 6.89993 26.7772 6.81642C26.4617 6.73291 26.1254 6.7759 25.8421 6.93594L18.0159 11.3891C17.9673 11.4166 17.9122 11.4311 17.8561 11.4309C17.8 11.4308 17.7449 11.4161 17.6965 11.3884C17.648 11.3606 17.6079 11.3208 17.5802 11.2729C17.5525 11.225 17.5381 11.1707 17.5386 11.1156L17.545 2.25C17.545 1.91848 17.4109 1.60054 17.1722 1.36612C16.9335 1.1317 16.6098 1 16.2723 1H13.7269C13.3894 1 13.0657 1.1317 12.827 1.36612C12.5883 1.60054 12.4542 1.91848 12.4542 2.25L12.4598 11.1227C12.4603 11.1777 12.446 11.232 12.4182 11.2799C12.3905 11.3278 12.3504 11.3676 12.3019 11.3954C12.2535 11.4232 12.1984 11.4378 12.1423 11.438C12.0862 11.4381 12.0311 11.4236 11.9825 11.3961L4.15627 6.94297C3.87305 6.78293 3.53671 6.73994 3.22121 6.82345C2.90572 6.90696 2.63692 7.11013 2.47394 7.38828L1.16466 9.62266C1.08382 9.76 1.0314 9.91166 1.01041 10.069C0.989412 10.2262 1.00025 10.3861 1.0423 10.5392C1.08436 10.6924 1.1568 10.8359 1.25546 10.9615C1.35413 11.0871 1.47708 11.1923 1.61726 11.2711L9.45147 15.7305C9.49931 15.758 9.53898 15.7974 9.56655 15.8447C9.59412 15.892 9.60862 15.9455 9.60862 16C9.60862 16.0545 9.59412 16.108 9.56655 16.1553C9.53898 16.2026 9.49931 16.242 9.45147 16.2695L1.61726 20.7289C1.33607 20.8898 1.13083 21.1532 1.0461 21.4618C0.961365 21.7704 1.00397 22.0994 1.16466 22.3773L2.47473 24.6109C2.63772 24.8891 2.90652 25.0923 3.22201 25.1758C3.5375 25.2593 3.87385 25.2163 4.15707 25.0563L11.9833 20.6031C12.0319 20.5756 12.087 20.5611 12.1431 20.5613C12.1992 20.5614 12.2543 20.5761 12.3027 20.6038C12.3512 20.6316 12.3913 20.6714 12.419 20.7193C12.4468 20.7672 12.4611 20.8215 12.4606 20.8766L12.4542 29.75C12.4542 30.0815 12.5883 30.3995 12.827 30.6339C13.0657 30.8683 13.3894 31 13.7269 31H16.2723C16.6098 31 16.9335 30.8683 17.1722 30.6339C17.4109 30.3995 17.545 30.0815 17.545 29.75L17.5394 20.8695C17.5389 20.8144 17.5532 20.7602 17.581 20.7123C17.6087 20.6644 17.6488 20.6245 17.6973 20.5968C17.7457 20.569 17.8008 20.5543 17.8569 20.5542C17.913 20.5541 17.9681 20.5685 18.0167 20.5961L25.8429 25.0492C26.1262 25.2093 26.4625 25.2522 26.778 25.1687C27.0935 25.0852 27.3623 24.8821 27.5253 24.6039L28.8353 22.3703C28.9162 22.233 28.9686 22.0813 28.9896 21.924C29.0106 21.7667 28.9998 21.6069 28.9577 21.4537C28.9156 21.3006 28.8432 21.1571 28.7445 21.0315C28.6459 20.9059 28.5229 20.8007 28.3827 20.7219L20.5485 16.2625C20.5007 16.2349 20.461 16.1955 20.4334 16.1483C20.4059 16.101 20.3914 16.0475 20.3914 15.993C20.3914 15.9385 20.4059 15.8849 20.4334 15.8377C20.461 15.7904 20.5007 15.751 20.5485 15.7234L28.3827 11.2641C28.6645 11.1034 28.8701 10.8399 28.9548 10.5309C29.0394 10.2219 28.9962 9.89264 28.8345 9.61484Z" stroke="white" stroke-width="2" stroke-linecap="round" stroke-linejoin="round"/>
</svg>
