<svg width="28" height="30" viewBox="0 0 28 30" fill="none" xmlns="http://www.w3.org/2000/svg">
<path fill-rule="evenodd" clip-rule="evenodd" d="M14.9333 7.5C15.1809 7.5 15.4183 7.59877 15.5933 7.77459C15.7683 7.9504 15.8667 8.18886 15.8667 8.4375V9.62625L16.8915 9.03187C16.9977 8.96935 17.1151 8.92853 17.2371 8.91178C17.359 8.89503 17.4831 8.90268 17.6021 8.93428C17.7211 8.96588 17.8327 9.02082 17.9304 9.09592C18.0282 9.17102 18.1102 9.26481 18.1718 9.37188C18.2333 9.47895 18.2732 9.5972 18.289 9.7198C18.3049 9.84241 18.2965 9.96696 18.2642 10.0863C18.232 10.2056 18.1765 10.3173 18.1011 10.415C18.0257 10.5128 17.9318 10.5945 17.8248 10.6556L16.8 11.25L17.8248 11.8444C17.9318 11.9055 18.0257 11.9872 18.1011 12.085C18.1765 12.1827 18.232 12.2944 18.2642 12.4137C18.2965 12.533 18.3049 12.6576 18.289 12.7802C18.2732 12.9028 18.2333 13.021 18.1718 13.1281C18.1102 13.2352 18.0282 13.329 17.9304 13.4041C17.8327 13.4792 17.7211 13.5341 17.6021 13.5657C17.4831 13.5973 17.359 13.605 17.2371 13.5882C17.1151 13.5715 16.9977 13.5307 16.8915 13.4681L15.8667 12.8738V14.0625C15.8667 14.3111 15.7683 14.5496 15.5933 14.7254C15.4183 14.9012 15.1809 15 14.9333 15C14.6858 15 14.4484 14.9012 14.2734 14.7254C14.0983 14.5496 14 14.3111 14 14.0625V12.8738L12.9752 13.4681C12.869 13.5307 12.7516 13.5715 12.6296 13.5882C12.5077 13.605 12.3836 13.5973 12.2646 13.5657C12.1456 13.5341 12.034 13.4792 11.9362 13.4041C11.8385 13.329 11.7564 13.2352 11.6949 13.1281C11.6333 13.021 11.5935 12.9028 11.5776 12.7802C11.5618 12.6576 11.5702 12.533 11.6024 12.4137C11.6347 12.2944 11.6901 12.1827 11.7655 12.085C11.841 11.9872 11.9349 11.9055 12.0419 11.8444L13.0667 11.25L12.0419 10.6556C11.8292 10.5304 11.6746 10.3258 11.6116 10.0865C11.5486 9.84715 11.5824 9.59249 11.7056 9.3781C11.8288 9.1637 12.0315 9.00697 12.2694 8.94211C12.5072 8.87725 12.7609 8.90952 12.9752 9.03187L14 9.62625V8.4375C14 8.18886 14.0983 7.9504 14.2734 7.77459C14.4484 7.59877 14.6858 7.5 14.9333 7.5ZM9.33333 17.8125C9.33333 17.5639 9.43167 17.3254 9.6067 17.1496C9.78173 16.9738 10.0191 16.875 10.2667 16.875H19.6C19.8475 16.875 20.0849 16.9738 20.26 17.1496C20.435 17.3254 20.5333 17.5639 20.5333 17.8125C20.5333 18.0611 20.435 18.2996 20.26 18.4754C20.0849 18.6512 19.8475 18.75 19.6 18.75H10.2667C10.0191 18.75 9.78173 18.6512 9.6067 18.4754C9.43167 18.2996 9.33333 18.0611 9.33333 17.8125ZM9.33333 21.5625C9.33333 21.3139 9.43167 21.0754 9.6067 20.8996C9.78173 20.7238 10.0191 20.625 10.2667 20.625H19.6C19.8475 20.625 20.0849 20.7238 20.26 20.8996C20.435 21.0754 20.5333 21.3139 20.5333 21.5625C20.5333 21.8111 20.435 22.0496 20.26 22.2254C20.0849 22.4012 19.8475 22.5 19.6 22.5H10.2667C10.0191 22.5 9.78173 22.4012 9.6067 22.2254C9.43167 22.0496 9.33333 21.8111 9.33333 21.5625Z" fill="white"/>
<path d="M5.6 0H24.2667C25.2568 0 26.2064 0.395088 26.9065 1.09835C27.6067 1.80161 28 2.75544 28 3.75V26.25C28 27.2446 27.6067 28.1984 26.9065 28.9016C26.2064 29.6049 25.2568 30 24.2667 30H5.6C4.60986 30 3.66027 29.6049 2.96013 28.9016C2.26 28.1984 1.86667 27.2446 1.86667 26.25V24.375H3.73333V26.25C3.73333 26.7473 3.93 27.2242 4.28007 27.5758C4.63014 27.9275 5.10493 28.125 5.6 28.125H24.2667C24.7617 28.125 25.2365 27.9275 25.5866 27.5758C25.9367 27.2242 26.1333 26.7473 26.1333 26.25V3.75C26.1333 3.25272 25.9367 2.77581 25.5866 2.42417C25.2365 2.07254 24.7617 1.875 24.2667 1.875H5.6C5.10493 1.875 4.63014 2.07254 4.28007 2.42417C3.93 2.77581 3.73333 3.25272 3.73333 3.75V5.625H1.86667V3.75C1.86667 2.75544 2.26 1.80161 2.96013 1.09835C3.66027 0.395088 4.60986 0 5.6 0Z" fill="white"/>
<path d="M1.86667 9.375V8.4375C1.86667 8.18886 1.965 7.9504 2.14003 7.77459C2.31507 7.59877 2.55246 7.5 2.8 7.5C3.04754 7.5 3.28493 7.59877 3.45997 7.77459C3.635 7.9504 3.73333 8.18886 3.73333 8.4375V9.375H4.66667C4.9142 9.375 5.1516 9.47377 5.32663 9.64959C5.50167 9.8254 5.6 10.0639 5.6 10.3125C5.6 10.5611 5.50167 10.7996 5.32663 10.9754C5.1516 11.1512 4.9142 11.25 4.66667 11.25H0.933333C0.685798 11.25 0.448401 11.1512 0.273367 10.9754C0.0983331 10.7996 0 10.5611 0 10.3125C0 10.0639 0.0983331 9.8254 0.273367 9.64959C0.448401 9.47377 0.685798 9.375 0.933333 9.375H1.86667ZM1.86667 15V14.0625C1.86667 13.8139 1.965 13.5754 2.14003 13.3996C2.31507 13.2238 2.55246 13.125 2.8 13.125C3.04754 13.125 3.28493 13.2238 3.45997 13.3996C3.635 13.5754 3.73333 13.8139 3.73333 14.0625V15H4.66667C4.9142 15 5.1516 15.0988 5.32663 15.2746C5.50167 15.4504 5.6 15.6889 5.6 15.9375C5.6 16.1861 5.50167 16.4246 5.32663 16.6004C5.1516 16.7762 4.9142 16.875 4.66667 16.875H0.933333C0.685798 16.875 0.448401 16.7762 0.273367 16.6004C0.0983331 16.4246 0 16.1861 0 15.9375C0 15.6889 0.0983331 15.4504 0.273367 15.2746C0.448401 15.0988 0.685798 15 0.933333 15H1.86667ZM1.86667 20.625V19.6875C1.86667 19.4389 1.965 19.2004 2.14003 19.0246C2.31507 18.8488 2.55246 18.75 2.8 18.75C3.04754 18.75 3.28493 18.8488 3.45997 19.0246C3.635 19.2004 3.73333 19.4389 3.73333 19.6875V20.625H4.66667C4.9142 20.625 5.1516 20.7238 5.32663 20.8996C5.50167 21.0754 5.6 21.3139 5.6 21.5625C5.6 21.8111 5.50167 22.0496 5.32663 22.2254C5.1516 22.4012 4.9142 22.5 4.66667 22.5H0.933333C0.685798 22.5 0.448401 22.4012 0.273367 22.2254C0.0983331 22.0496 0 21.8111 0 21.5625C0 21.3139 0.0983331 21.0754 0.273367 20.8996C0.448401 20.7238 0.685798 20.625 0.933333 20.625H1.86667Z" fill="white"/>
</svg>
