<svg width="30" height="30" viewBox="0 0 30 30" fill="none" xmlns="http://www.w3.org/2000/svg">
<path d="M15.6542 4.49406C15.8504 4.29805 16.1164 4.18796 16.3937 4.18796C16.671 4.18796 16.9369 4.29805 17.1331 4.49406L19.2259 6.5874C19.4108 6.78581 19.5114 7.04824 19.5066 7.3194C19.5018 7.59056 19.392 7.84927 19.2003 8.04104C19.0086 8.23281 18.7499 8.34265 18.4788 8.34744C18.2077 8.35222 17.9454 8.25157 17.747 8.06669L15.6542 5.97335C15.4583 5.7771 15.3482 5.51107 15.3482 5.23371C15.3482 4.95634 15.4583 4.69031 15.6542 4.49406Z" fill="white"/>
<path fill-rule="evenodd" clip-rule="evenodd" d="M8.10894 2.52911C8.91051 1.72729 9.86213 1.09124 10.9095 0.657297C11.9568 0.22335 13.0793 0 14.213 0C15.3466 0 16.4691 0.22335 17.5165 0.657297C18.5638 1.09124 19.5154 1.72729 20.317 2.52911L27.4688 9.68274C28.8693 11.0823 29.7464 12.9209 29.9529 14.8903C30.1594 16.8597 29.6829 18.8402 28.6032 20.5C27.5235 22.1598 25.9062 23.3979 24.0225 24.0069C22.1387 24.6159 20.1029 24.5587 18.2563 23.8449C17.4899 25.9182 16.0191 27.6561 14.1012 28.7545C12.1833 29.8529 9.94042 30.2418 7.76482 29.8533C5.58922 29.4648 3.61942 28.3236 2.19997 26.6293C0.780525 24.935 0.00179778 22.7954 5.17623e-08 20.5848C-0.000201807 18.6582 0.590038 16.7778 1.69118 15.197C2.79232 13.6163 4.35144 12.4111 6.15844 11.744C5.55681 10.184 5.42086 8.48289 5.76709 6.84714C6.11333 5.21138 6.92687 3.71134 8.10894 2.52911ZM18.8381 4.00841C17.6114 2.78144 15.9477 2.09214 14.213 2.09214C12.4782 2.09214 10.8145 2.78144 9.58785 4.00841C8.3612 5.23537 7.67207 6.89949 7.67207 8.63468C7.67207 10.3699 8.3612 12.034 9.58785 13.261L12.7326 16.4037C13.034 16.3033 13.4582 16.1428 13.9744 15.8958C15.0975 15.3529 16.6546 14.3941 18.3135 12.7362C19.971 11.0783 20.9295 9.51946 21.4708 8.39604C21.6669 7.99332 21.837 7.57845 21.9801 7.15399L18.8381 4.00841ZM23.5985 8.77284C23.5274 8.94031 23.445 9.11754 23.3571 9.30315C22.7223 10.6206 21.6313 12.3762 19.7924 14.2155C17.9535 16.0563 16.1969 17.1462 14.8813 17.7812C14.6957 17.8705 14.5185 17.9514 14.3511 18.024L16.7411 20.4132C17.3458 21.0318 18.0671 21.5243 18.8634 21.8621C19.6597 22.1999 20.5151 22.3763 21.38 22.3812C22.2449 22.386 23.1022 22.2192 23.9023 21.8904C24.7023 21.5616 25.4292 21.0772 26.0408 20.4655C26.6524 19.8537 27.1366 19.1267 27.4653 18.3264C27.7941 17.5262 27.9609 16.6687 27.956 15.8035C27.9511 14.9384 27.7747 14.0828 27.437 13.2863C27.0993 12.4898 26.6069 11.7683 25.9885 11.1634L23.5985 8.77284ZM7.1588 13.6126C5.96675 13.9999 4.89399 14.6866 4.04314 15.6072C3.19229 16.5277 2.59181 17.6512 2.29915 18.8702C2.0065 20.0892 2.03145 21.3629 2.37162 22.5695C2.7118 23.7761 3.35581 24.8752 4.24206 25.7617C5.12831 26.6482 6.22715 27.2924 7.43345 27.6326C8.63975 27.9729 9.91316 27.9979 11.1319 27.7051C12.3506 27.4124 13.4738 26.8118 14.3941 25.9607C15.3144 25.1096 16.0009 24.0366 16.3881 22.8442C15.9861 22.56 15.6089 22.2421 15.2608 21.8939L8.10894 14.7402C7.76087 14.392 7.44301 14.0147 7.1588 13.6126Z" fill="white"/>
</svg>
