<svg width="1200" height="193" viewBox="0 0 1200 193" fill="none" xmlns="http://www.w3.org/2000/svg">
<rect width="1200" height="193" rx="40" fill="#1C49A1"/>
<mask id="mask0_1_159" style="mask-type:alpha" maskUnits="userSpaceOnUse" x="0" y="0" width="1200" height="193">
<rect width="1200" height="193" rx="40" fill="#222D79"/>
</mask>
<g mask="url(#mask0_1_159)">
<g opacity="0.1">
<path d="M1014.27 187.074C992.296 209.048 969.201 225.648 949.669 234.746C939.897 239.299 931.093 241.938 923.813 242.479C916.526 243.021 910.968 241.456 907.372 237.86C903.777 234.265 902.211 228.706 902.753 221.42C903.295 214.139 905.934 205.335 910.486 195.563C919.585 176.031 936.185 152.937 958.158 130.963C980.132 108.989 1003.23 92.3895 1022.76 83.2905C1032.53 78.7382 1041.33 76.0994 1048.61 75.5578C1055.9 75.0158 1061.46 76.5813 1065.06 80.1768C1068.65 83.7724 1070.22 89.3306 1069.67 96.6174C1069.13 103.898 1066.49 112.702 1061.94 122.474C1052.84 142.006 1036.24 165.1 1014.27 187.074Z" stroke="white" stroke-width="3"/>
<path d="M1027.86 200.663C1005.88 222.637 982.787 239.236 963.255 248.335C953.483 252.888 944.679 255.526 937.399 256.068C930.112 256.61 924.554 255.045 920.958 251.449C917.363 247.853 915.797 242.295 916.339 235.008C916.881 227.728 919.52 218.924 924.072 209.152C933.171 189.62 949.771 166.526 971.744 144.552C993.718 122.578 1016.81 105.978 1036.34 96.8793C1046.12 92.3271 1054.92 89.6883 1062.2 89.1467C1069.49 88.6047 1075.05 90.1701 1078.64 93.7657C1082.24 97.3613 1083.8 102.919 1083.26 110.206C1082.72 117.487 1080.08 126.291 1075.53 136.063C1066.43 155.595 1049.83 178.689 1027.86 200.663Z" stroke="white" stroke-width="3"/>
<path d="M1041.44 214.249C1019.47 236.223 996.373 252.822 976.841 261.921C967.069 266.474 958.265 269.112 950.985 269.654C943.698 270.196 938.14 268.631 934.544 265.035C930.949 261.439 929.383 255.881 929.925 248.594C930.467 241.314 933.105 232.51 937.658 222.738C946.757 203.206 963.356 180.112 985.33 158.138C1007.3 136.164 1030.4 119.564 1049.93 110.465C1059.7 105.913 1068.51 103.274 1075.79 102.733C1083.07 102.191 1088.63 103.756 1092.23 107.352C1095.82 110.947 1097.39 116.505 1096.85 123.792C1096.3 131.073 1093.67 139.877 1089.11 149.649C1080.01 169.181 1063.42 192.275 1041.44 214.249Z" stroke="white" stroke-width="3"/>
<path d="M1055.03 227.838C1033.06 249.811 1009.96 266.411 990.431 275.51C980.659 280.062 971.855 282.701 964.574 283.243C957.288 283.785 951.73 282.219 948.134 278.624C944.538 275.028 942.973 269.47 943.515 262.183C944.057 254.903 946.695 246.099 951.248 236.327C960.347 216.795 976.946 193.7 998.92 171.727C1020.89 149.753 1043.99 133.153 1063.52 124.054C1073.29 119.502 1082.1 116.863 1089.38 116.322C1096.66 115.779 1102.22 117.345 1105.82 120.941C1109.41 124.536 1110.98 130.094 1110.44 137.381C1109.89 144.662 1107.26 153.466 1102.7 163.238C1093.6 182.77 1077 205.864 1055.03 227.838Z" stroke="white" stroke-width="3"/>
</g>
<g opacity="0.1">
<path d="M185.918 5.72385C207.892 -16.2499 230.986 -32.8497 250.518 -41.9486C260.29 -46.5009 269.094 -49.1397 276.375 -49.6813C283.661 -50.2233 289.22 -48.6579 292.815 -45.0623C296.411 -41.4667 297.976 -35.9085 297.434 -28.6218C296.893 -21.3411 294.254 -12.5372 289.702 -2.76526C280.603 16.7668 264.003 39.8611 242.029 61.8349C220.055 83.8087 196.961 100.408 177.429 109.507C167.657 114.06 158.853 116.698 151.573 117.24C144.286 117.782 138.728 116.217 135.132 112.621C131.536 109.025 129.971 103.467 130.513 96.1805C131.055 88.8999 133.693 80.0959 138.246 70.324C147.345 50.792 163.944 27.6976 185.918 5.72385Z" stroke="white" stroke-width="3"/>
<path d="M172.332 -7.86502C194.306 -29.8388 217.4 -46.4385 236.932 -55.5375C246.704 -60.0897 255.508 -62.7286 262.789 -63.2702C270.076 -63.8122 275.634 -62.2467 279.229 -58.6511C282.825 -55.0556 284.39 -49.4973 283.848 -42.2106C283.307 -34.93 280.668 -26.1261 276.116 -16.3541C267.017 3.17791 250.417 26.2722 228.443 48.246C206.469 70.2198 183.375 86.8195 163.843 95.9185C154.071 100.471 145.267 103.11 137.987 103.651C130.7 104.193 125.142 102.628 121.546 99.0321C117.95 95.4366 116.385 89.8784 116.927 82.5916C117.469 75.311 120.107 66.5071 124.66 56.7351C133.759 37.2031 150.358 14.1088 172.332 -7.86502Z" stroke="white" stroke-width="3"/>
<path d="M158.746 -21.451C180.72 -43.4247 203.814 -60.0245 223.346 -69.1234C233.118 -73.6757 241.922 -76.3145 249.203 -76.8561C256.49 -77.3981 262.048 -75.8327 265.643 -72.2371C269.239 -68.6415 270.804 -63.0833 270.262 -55.7966C269.721 -48.5159 267.082 -39.712 262.53 -29.9401C253.431 -10.408 236.831 12.6863 214.857 34.6601C192.883 56.6339 169.789 73.2336 150.257 82.3326C140.485 86.8848 131.681 89.5236 124.401 90.0652C117.114 90.6072 111.556 89.0418 107.96 85.4462C104.365 81.8506 102.799 76.2924 103.341 69.0057C103.883 61.7251 106.522 52.9211 111.074 43.1492C120.173 23.6172 136.772 0.52283 158.746 -21.451Z" stroke="white" stroke-width="3"/>
<path d="M145.156 -35.0398C167.13 -57.0136 190.225 -73.6133 209.757 -82.7123C219.528 -87.2646 228.332 -89.9034 235.613 -90.445C242.9 -90.987 248.458 -89.4215 252.054 -85.8259C255.649 -82.2304 257.215 -76.6722 256.673 -69.3854C256.131 -62.1048 253.492 -53.3009 248.94 -43.5289C239.841 -23.9969 223.241 -0.902573 201.267 21.0712C179.294 43.045 156.199 59.6447 136.667 68.7437C126.895 73.2959 118.091 75.9348 110.811 76.4763C103.524 77.0184 97.9658 75.4529 94.3703 71.8573C90.7747 68.2618 89.2092 62.7036 89.7513 55.4168C90.2928 48.1362 92.9317 39.3323 97.4839 29.5603C106.583 10.0283 123.183 -13.066 145.156 -35.0398Z" stroke="white" stroke-width="3"/>
</g>
</g>
</svg>
