<svg width="30" height="30" viewBox="0 0 30 30" fill="none" xmlns="http://www.w3.org/2000/svg">
<path fill-rule="evenodd" clip-rule="evenodd" d="M14.8917 8.7525H17.0833C17.3043 8.7525 17.5163 8.6647 17.6726 8.50842C17.8289 8.35214 17.9167 8.14018 17.9167 7.91917C17.9167 7.69815 17.8289 7.48619 17.6726 7.32991C17.5163 7.17363 17.3043 7.08583 17.0833 7.08583H14.8917C14.6008 7.08583 14.2625 7.13333 13.9333 7.29417C12.7467 7.87333 12.075 8.875 11.7058 9.85083C11.5808 10.18 11.4883 10.5133 11.42 10.8358H13.135C13.1725 10.7025 13.215 10.5708 13.2642 10.44C13.5325 9.73 13.9683 9.13167 14.6642 8.79167C14.7365 8.76196 14.8136 8.74859 14.8917 8.7525ZM10.0008 11.6692C9.54083 11.6692 9.15667 12.0492 9.28167 12.4925C9.7625 14.2083 11.72 15.5433 14.1675 15.7933V17.0917C13.5883 17.1058 12.9867 17.1525 12.4758 17.3008C12.0775 17.4175 11.655 17.6158 11.3317 17.9792C10.9933 18.3592 10.8342 18.8392 10.8342 19.375C10.8342 19.9108 10.9925 20.3917 11.3308 20.7725C11.6542 21.1367 12.0767 21.3367 12.4758 21.4533C12.7425 21.5308 13.0342 21.5808 13.3342 21.6125V19.935C13.2018 19.917 13.071 19.8897 12.9425 19.8533C12.7175 19.7867 12.6183 19.7133 12.5775 19.6667C12.5508 19.6367 12.5008 19.5692 12.5008 19.375C12.5008 19.1833 12.5508 19.1167 12.5758 19.0875C12.6175 19.0408 12.7158 18.9667 12.9425 18.9008C13.2617 18.8083 13.6733 18.7733 14.1675 18.76V23.3358H11.6675V25.0025H18.3342V23.3358H15.8342V18.7217C16.7525 18.65 17.4967 18.4483 18.0567 18.0875C18.8442 17.5792 19.1675 16.8233 19.1675 16.0208C19.1741 15.5922 19.0678 15.1695 18.8592 14.795C19.7958 14.2033 20.465 13.4017 20.72 12.4925C20.845 12.0492 20.4617 11.6692 20.0008 11.6692H10.0008ZM17.1533 16.6858C16.9175 16.8383 16.5083 16.9833 15.8342 17.0483V15.7933C16.3347 15.7432 16.829 15.6438 17.31 15.4967C17.4475 15.6275 17.5008 15.7867 17.5008 16.0217C17.5008 16.33 17.4075 16.5225 17.1533 16.6858Z" fill="white"/>
<path fill-rule="evenodd" clip-rule="evenodd" d="M21.6667 21.6667H30V8.33333H21.6667V0H8.33333V8.33333H0V21.6667H8.33333V30H21.6667V21.6667ZM20 28.3333V20H28.3333V10H20V1.66667H10V10H1.66667V20H10V28.3333H20Z" fill="white"/>
</svg>
