<svg width="387" height="300" viewBox="0 0 387 300" fill="none" xmlns="http://www.w3.org/2000/svg">
<rect width="387" height="300" rx="40" fill="#1C49A1"/>
<mask id="mask0_1_160" style="mask-type:alpha" maskUnits="userSpaceOnUse" x="0" y="0" width="387" height="300">
<rect width="387" height="300" rx="40" fill="#222D79"/>
</mask>
<g mask="url(#mask0_1_160)">
<path opacity="0.05" fill-rule="evenodd" clip-rule="evenodd" d="M233.177 -12.5904C219.771 -8.99828 208.345 -0.215465 201.411 11.826C194.478 23.8674 192.605 38.181 196.206 51.6181C199.806 65.0552 208.585 76.5149 220.61 83.4763C232.635 90.4378 246.922 92.3307 260.328 88.7386C273.734 85.1465 285.16 76.3637 292.094 64.3222C299.027 52.2808 300.9 37.9672 297.299 24.5301C293.699 11.0931 284.921 -0.366704 272.895 -7.32814C260.87 -14.2896 246.583 -16.1825 233.177 -12.5904ZM184.074 54.8687C181.621 45.6874 181.205 36.0814 182.856 26.7265C184.506 17.3716 188.183 8.49517 193.627 0.721709C199.071 -7.05175 206.151 -13.5333 214.367 -18.267C222.584 -23.0006 231.738 -25.8713 241.186 -26.677C250.634 -27.4828 260.145 -26.204 269.051 -22.9306C277.957 -19.6573 286.042 -14.4689 292.735 -7.73063C299.429 -0.992339 304.569 7.13218 307.794 16.0712C311.02 25.0103 312.252 34.5467 311.404 44.0095L335.051 58.2471C337.71 59.8545 339.923 61.1904 341.619 62.3433C343.292 63.4763 345.054 64.8113 346.348 66.5672C350.884 72.6932 350.889 81.3803 345.447 87.1131C343.896 88.7626 341.886 89.8049 340.141 90.6027C338.352 91.4297 336.039 92.31 333.313 93.3619L333.123 93.4301C329.518 94.822 328.847 95.1321 328.419 95.4464C327.75 95.9421 327.197 96.5785 326.799 97.3109C326.401 98.0434 326.167 98.8543 326.114 99.6871C326.056 100.311 326.159 101.178 326.802 105.098L326.833 105.281C327.326 108.285 327.742 110.807 327.959 112.816C328.168 114.758 328.305 117.016 327.731 119.176C325.715 126.858 318.385 131.498 310.658 130.415C308.487 130.11 306.458 129.168 304.699 128.232C302.882 127.277 300.678 125.939 298.019 124.331L297.814 124.212L264.325 103.654L245.582 138.26L245.493 138.414C243.995 141.135 242.746 143.399 241.659 145.132C240.595 146.825 239.309 148.655 237.59 150.002C231.423 154.808 222.763 154.453 217.177 148.808C215.607 147.221 214.591 145.209 213.796 143.406C212.982 141.565 212.081 139.174 211.016 136.331L210.942 136.151C209.547 132.433 209.196 131.641 208.84 131.119C208.378 130.425 207.77 129.839 207.059 129.404C206.348 128.969 205.551 128.694 204.723 128.599C204.188 128.543 203.452 128.61 199.633 129.207L199.443 129.241C196.556 129.693 194.111 130.079 192.15 130.265C190.242 130.455 187.979 130.549 185.802 129.899C178.231 127.653 173.892 120.127 174.749 112.556C175 110.386 175.85 108.351 176.733 106.533C177.625 104.687 178.874 102.423 180.38 99.6998L193.733 75.548C189.32 69.2792 186.05 62.2779 184.074 54.8687ZM202.527 85.6247L191.456 105.646C189.846 108.563 188.758 110.522 188.035 112.028C187.697 112.649 187.425 113.305 187.224 113.983C186.996 116.042 188.145 117.42 189.279 117.802C189.358 117.807 189.807 117.835 190.941 117.731C192.462 117.584 194.543 117.261 197.67 116.77L198.294 116.673C201.12 116.22 203.624 115.827 206.023 116.079C211.367 116.645 216.114 119.544 219.16 123.958C220.521 125.93 221.424 128.33 222.468 131.126L222.695 131.716C223.848 134.787 224.623 136.839 225.28 138.322C225.842 139.579 226.117 139.957 226.132 139.979C227.072 140.9 228.542 141.08 229.84 140.071C229.84 140.071 230.186 139.744 231.01 138.42C231.892 137.019 232.973 135.07 234.578 132.164L234.59 132.143L250.363 103.016C241.635 103.49 232.9 102.193 224.681 99.2049C216.461 96.2166 208.926 91.5977 202.527 85.6247ZM276.099 96.129C283.896 92.1746 290.814 86.6832 296.44 79.9836C302.065 73.2839 306.282 65.5139 308.837 57.139L328.434 68.943C331.288 70.6633 333.201 71.8188 334.58 72.7612C335.879 73.6295 336.225 74.0147 336.26 74.0487C337.488 75.7181 337.181 77.4858 336.399 78.3819C336.324 78.4279 335.957 78.674 334.923 79.1509C333.524 79.7863 331.569 80.5448 328.607 81.686L328.018 81.9134C325.352 82.9317 322.979 83.8456 321.027 85.2634C316.691 88.4238 314.021 93.3095 313.59 98.6554C313.398 101.044 313.816 103.573 314.309 106.517L314.408 107.142C314.945 110.378 315.3 112.542 315.472 114.155C315.622 115.522 315.565 115.989 315.571 116.014C315.218 117.281 314.029 118.182 312.389 117.952L312.406 117.948C312.406 117.948 311.943 117.838 310.559 117.105C308.456 115.946 306.383 114.735 304.341 113.471L304.32 113.459L276.099 96.129ZM242.49 22.1349C242.233 23.0815 241.959 24.1627 241.642 25.438L241.231 27.077C241.201 27.2009 241.17 27.3249 241.14 27.449C240.814 28.7875 240.28 30.9985 238.883 32.8063C237.461 34.6471 235.427 35.6958 234.248 36.3073L233.92 36.4735L232.468 37.236C231.132 37.9416 230.053 38.5087 229.133 39.0244C229.983 39.6395 231.081 40.4053 232.506 41.3876L233.887 42.338L234.204 42.5486C235.349 43.3279 237.198 44.5699 238.41 46.5042C239.613 48.4061 239.96 50.6068 240.183 51.9893C240.203 52.12 240.224 52.2506 240.245 52.3811L240.524 54.07C240.734 55.3449 240.956 56.6175 241.192 57.8878C241.933 57.2895 242.77 56.5961 243.769 55.7636L245.039 54.711L245.319 54.4622C246.338 53.607 248.106 52.1168 250.354 51.5144C252.61 50.9098 254.878 51.3186 256.19 51.5578L256.555 51.6251L258.189 51.8998C259.463 52.1233 260.536 52.3134 261.483 52.4507C261.045 51.2352 260.599 50.0225 260.144 48.8128L259.542 47.2106C259.495 47.0869 259.447 46.9635 259.399 46.8404C258.899 45.5235 258.109 43.45 258.192 41.2036C258.274 38.9226 259.255 36.9221 259.857 35.6748L260.026 35.3342L260.747 33.8203C261.49 32.2572 262.058 31.045 262.494 30.0854C261.443 30.1066 260.214 30.1489 258.712 30.2039L257.074 30.2692L256.705 30.2814C255.371 30.3519 253.094 30.4582 250.931 29.5693C248.82 28.7101 247.252 27.0625 246.31 26.0723L246.035 25.7898L244.861 24.5755C243.948 23.6296 243.179 22.828 242.482 22.1371M231.82 14.2728C232.722 12.0761 234.547 8.76327 238.599 7.67759C242.659 6.58973 245.896 8.546 247.776 9.99719C249.567 11.3765 251.555 13.4244 253.592 15.5284L253.859 15.8131L255.715 17.7227L256.565 17.6946L258.195 17.6314L258.605 17.6085C261.421 17.5056 264.208 17.3931 266.445 17.6539C268.922 17.9372 272.397 18.8393 274.579 22.2945C276.716 25.6752 276.107 29.1921 275.386 31.5487C274.713 33.7273 273.498 36.2771 272.241 38.8988L272.075 39.2476L271.356 40.7696L270.903 41.7336L271.293 42.8019L271.896 44.4042L272.028 44.7684C273.076 47.546 274.081 50.2306 274.567 52.4637C275.091 54.8081 275.48 58.4574 272.978 61.6734C270.403 65.0045 266.701 65.423 264.261 65.3731C262.016 65.3405 259.251 64.8562 256.454 64.3807L256.063 64.3118L254.435 64.0268C254.177 63.9825 253.92 63.9385 253.663 63.8949L253.062 64.4033L251.801 65.4538L251.488 65.7113C249.311 67.5195 247.151 69.3235 245.223 70.4743C243.132 71.7296 239.719 73.2262 235.824 71.6287C232.058 70.0922 230.569 66.7377 229.845 64.4555C229.155 62.2685 228.676 59.443 228.194 56.5137L228.135 56.13L227.855 54.4411L227.659 53.3207C227.367 53.1167 227.073 52.9145 226.777 52.7143L225.394 51.7557L225.075 51.537C222.684 49.8926 220.346 48.2861 218.674 46.7358C216.874 45.0635 214.596 42.3202 214.746 38.3182C214.913 34.2507 217.477 31.7217 219.472 30.24C221.279 28.8958 223.757 27.5975 226.249 26.2869L226.599 26.1061L228.807 24.9324L229.043 24.0004L229.451 22.3532L229.548 21.971C230.261 19.1302 230.95 16.3651 231.82 14.2728Z" fill="#F8F8F8"/>
</g>
</svg>
