<svg width="387" height="300" viewBox="0 0 387 300" fill="none" xmlns="http://www.w3.org/2000/svg">
<rect width="387" height="300" rx="40" fill="#1C49A1"/>
<mask id="mask0_1_161" style="mask-type:alpha" maskUnits="userSpaceOnUse" x="0" y="0" width="387" height="300">
<rect y="0.000244141" width="387" height="300" rx="40" fill="#222D79"/>
</mask>
<g mask="url(#mask0_1_161)">
<path opacity="0.05" d="M314.964 -46.4696C317.06 -47.0312 319.294 -46.7331 321.175 -45.6408C323.056 -44.5485 324.43 -42.7515 324.995 -40.6451L359.059 86.4834C359.603 88.573 359.308 90.7918 358.236 92.6605C357.165 94.5292 355.403 95.8977 353.332 96.4705L210.951 134.621C208.871 135.177 206.654 134.879 204.787 133.794C202.921 132.709 201.558 130.926 200.998 128.836L198.855 120.838L341.11 82.7209L316.211 -10.2011L268.309 63.9226L170.126 13.6202L166.934 1.70708C166.37 -0.399284 166.661 -2.64248 167.744 -4.52904C168.827 -6.41559 170.613 -7.79096 172.709 -8.35259L314.964 -46.4696ZM237.761 76.364L242.017 92.2482L178.793 109.189L174.537 93.3049L237.761 76.364ZM203.412 43.0066L207.668 58.8907L168.153 69.4788L163.896 53.5946L203.412 43.0066ZM307.887 -27.5488L188.298 4.49487L262.585 42.5584L307.887 -27.5488Z" fill="#F8F8F8"/>
</g>
</svg>
