<svg width="387" height="300" viewBox="0 0 387 300" fill="none" xmlns="http://www.w3.org/2000/svg">
<rect width="387" height="300" rx="40" fill="#1C49A1"/>
<mask id="mask0_1_162" style="mask-type:alpha" maskUnits="userSpaceOnUse" x="0" y="0" width="387" height="300">
<rect width="387" height="300" rx="40" fill="#222D79"/>
</mask>
<g mask="url(#mask0_1_162)">
<path opacity="0.05" d="M285.448 65.6395C283.431 66.1801 281.712 67.5054 280.671 69.3239C279.629 71.1423 279.35 73.305 279.894 75.3362C280.438 77.3673 281.761 79.1005 283.573 80.1545C285.384 81.2085 287.535 81.4969 289.552 80.9564L314.908 74.1624C316.925 73.6218 318.644 72.2965 319.686 70.478C320.727 68.6596 321.007 66.4969 320.463 64.4658C319.918 62.4346 318.595 60.7014 316.784 59.6474C314.972 58.5934 312.821 58.305 310.804 58.8455L285.448 65.6395ZM128.892 39.1865C126.534 30.3849 127.745 21.0132 132.259 13.1332C136.773 5.25317 144.22 -0.489755 152.962 -2.8322L289.882 -39.5198C294.211 -40.6797 298.727 -40.9698 303.173 -40.3736C307.619 -39.7774 311.908 -38.3065 315.795 -36.045C319.681 -33.7835 323.089 -30.7756 325.825 -27.1931C328.56 -23.6106 330.569 -19.5237 331.737 -15.1655L352.257 61.4186C353.425 65.7767 353.729 70.3206 353.151 74.7908C352.574 79.261 351.126 83.57 348.891 87.4718C346.656 91.3736 343.677 94.7918 340.125 97.5311C336.572 100.27 332.516 102.277 328.187 103.437L191.267 140.125C182.525 142.467 173.204 141.217 165.355 136.65C157.506 132.083 151.771 124.572 149.413 115.771L128.892 39.1865ZM319.943 1.67487L316.523 -11.0891C315.253 -15.8285 312.166 -19.8726 307.939 -22.3319C303.713 -24.7913 298.694 -25.4643 293.986 -24.203L157.066 12.4846C152.359 13.7459 148.349 16.8383 145.918 21.0814C143.488 25.3245 142.836 30.3707 144.106 35.1101L147.526 47.8741L319.943 1.67487ZM151.63 63.1909L164.626 111.694C167.269 121.558 177.366 127.433 187.163 124.808L324.083 88.1204C328.791 86.8591 332.801 83.7667 335.231 79.5236C337.662 75.2805 338.314 70.2343 337.044 65.495L324.048 16.9917L151.63 63.1909Z" fill="#F8F8F8"/>
</g>
</svg>
